Coordinates
version=1
nRows=10
nColumns=40
inDegrees=yes

Units are S.I. units (second, meters, Newtons, ...)
Angles are in degrees.

endheader
time	pelvis_tilt	pelvis_list	pelvis_rotation	pelvis_tx	pelvis_ty	pelvis_tz	hip_flexion_r	hip_adduction_r	hip_rotation_r	knee_angle_r	knee_angle_r_beta	ankle_angle_r	subtalar_angle_r	mtp_angle_r	hip_flexion_l	hip_adduction_l	hip_rotation_l	knee_angle_l	knee_angle_l_beta	ankle_angle_l	subtalar_angle_l	mtp_angle_l	lumbar_extension	lumbar_bending	lumbar_rotation	arm_flex_r	arm_add_r	arm_rot_r	elbow_flex_r	pro_sup_r	wrist_flex_r	wrist_dev_r	arm_flex_l	arm_add_l	arm_rot_l	elbow_flex_l	pro_sup_l	wrist_flex_l	wrist_dev_l
      0.00000000	     -1.47543706	     11.68348840	      1.65010394	     -1.06758772	      0.95317362	     -1.41883822	      9.45659117	    -24.73360999	     -6.81770044	    -59.78426408	     -1.04343225	     -5.78325634	     -5.91362606	     -2.32977904	     10.95510369	    -10.09240013	     12.63413754	    -15.90242802	     -0.27754973	      0.65207079	      8.20921075	     -1.30044113	      0.34819155	    -14.10634484	      4.24122793	      6.33331825	    -10.11809414	    -11.85239531	     27.46088002	     89.95437384	      0.00000000	      0.00000000	     -5.46272916	     11.63987671	      5.62401000	     13.97947205	     89.95437384	      0.00000000	      0.00000000
      0.01000000	     -1.33675531	     11.60636770	      1.22383166	     -1.05974476	      0.95435269	     -1.42176873	     11.09016853	    -24.65184794	     -6.53393609	    -61.05819042	     -1.06566646	     -5.38946723	     -9.67159550	     -1.79213205	      9.90850931	    -10.28129987	     12.66888600	    -15.15505213	     -0.26450556	      0.84168507	      8.36038815	     -1.27137383	      0.10089620	    -13.93850222	      4.03749892	      6.32488827	     -9.94846434	    -11.81262153	     26.73830562	     89.95437384	      0.00000000	      0.00000000	     -4.55129737	     11.84071716	      5.64078640	     14.73394731	     89.95437384	      0.00000000	      0.00000000
      0.02000000	     -1.26985383	     11.34175849	      0.90762934	     -1.05207740	      0.95541711	     -1.42469484	     12.63803924	    -24.40440424	     -6.54903643	    -61.99451591	     -1.08200842	     -4.80972860	    -12.65544367	     -1.01437715	      8.97786294	    -10.24605101	     12.81037540	    -14.48513924	     -0.25281337	      1.05965594	      8.22840540	     -1.29792324	     -0.10048897	    -13.57018233	      3.70662631	      6.28835205	     -9.82124741	    -11.64816432	     26.03473391	     89.95437384	      0.00000000	      0.00000000	     -3.64827949	     12.03876438	      5.57886094	     15.48134289	     89.95437384	      0.00000000	      0.00000000
      0.03000000	     -1.15817501	     11.03536304	      0.63113635	     -1.04446717	      0.95648730	     -1.42765676	     14.06875097	    -24.03522623	     -6.51858353	    -62.65983843	     -1.09362049	     -4.25755136	    -15.09451820	      0.86408734	      8.00038539	    -10.17232993	     13.00664754	    -13.84167082	     -0.24158273	      1.39181789	      8.11354276	     -1.44353017	     -0.38303259	    -13.13133705	      3.36443547	      6.13854908	     -9.82280256	    -11.25161457	     25.59318884	     89.95437384	      0.00000000	      0.00000000	     -2.64965641	     12.26760243	      5.42734116	     16.13144179	     89.95437384	      0.00000000	      0.00000000
      0.04000000	     -0.90463509	     10.47209012	      0.54543501	     -1.03663267	      0.95787776	     -1.43047307	     15.06297344	    -23.31008159	     -6.76242975	    -63.06309722	     -1.10065868	     -1.82266688	    -16.16917094	     11.25599861	      6.84334247	     -9.76278787	     13.30947137	    -13.21613789	     -0.23066512	      1.57375537	      7.29352970	     -1.89793957	     -0.84408172	    -12.45822501	      2.93717549	      6.00173262	     -9.70709188	    -11.53692235	     25.04304047	     89.95437384	      0.00000000	      0.00000000	     -1.65476465	     12.59191516	      4.73648939	     16.91882608	     89.95437384	      0.00000000	      0.00000000
      0.05000000	     -0.93161526	     10.22284678	      0.46806751	     -1.02901575	      0.95865775	     -1.43346570	     16.43017521	    -22.93815369	     -6.77721179	    -63.27015043	     -1.10427244	     -1.03524505	    -16.86548230	     11.29738893	      5.97235141	     -9.75135682	     13.51200415	    -12.52709341	     -0.21863903	      1.87308137	      7.01994171	     -1.97424225	     -0.99781226	    -12.10584883	      2.40122118	      5.85496217	     -9.65555964	    -11.26136505	     24.53855810	     89.95437384	      0.00000000	      0.00000000	     -0.62197108	     12.85003126	      4.92235253	     17.47208965	     89.95437384	      0.00000000	      0.00000000
      0.06000000	     -1.01069783	      9.93888172	      0.56511160	     -1.02172931	      0.95931809	     -1.43678004	     17.72392820	    -22.72208383	     -7.23135159	    -63.18220222	     -1.10273746	     -0.66360483	    -16.96051543	     11.18903206	      5.36864106	     -9.68756859	     13.89020782	    -12.19034078	     -0.21276158	      2.10615687	      6.90587189	     -1.99213647	     -1.16903841	    -11.69417928	      1.75871784	      5.59779013	     -9.63136182	    -11.13275700	     24.29121844	     89.95437384	      0.00000000	      0.00000000	      0.42655381	     13.14816675	      4.89673430	     18.09279981	     89.95437384	      0.00000000	      0.00000000
      0.07000000	     -0.95484491	      9.44054577	      0.52599881	     -1.01399152	      0.96015289	     -1.43924246	     18.71917908	    -21.87950849	     -7.34435476	    -62.74410959	     -1.09509130	      0.21547016	    -17.56636089	     11.42090933	      4.32058639	     -9.39397080	     13.65512897	    -11.31424035	     -0.19747075	      2.22881680	      6.32284273	     -2.06218401	     -1.38136887	    -11.10243982	      1.27740971	      5.45563152	     -9.65749320	    -10.63098170	     23.55990566	     89.95437384	      0.00000000	      0.00000000	      1.37231965	     13.50756191	      4.75955269	     18.86844427	     89.95437384	      0.00000000	      0.00000000
      0.08000000	     -1.03611091	      9.15767804	      0.66565274	     -1.00641813	      0.96061291	     -1.44240386	     19.85243826	    -21.58927329	     -7.88912531	    -62.17537334	     -1.08516498	      0.58398379	    -17.53262818	     11.40343913	      3.72503449	     -9.31025397	     13.93398098	    -11.01438470	     -0.19223728	      2.52536358	      6.18551387	     -2.11389700	     -1.49275966	    -10.70494457	      0.66578958	      5.18913834	     -9.67065458	    -10.50614741	     23.20417885	     89.95437384	      0.00000000	      0.00000000	      2.41081946	     13.87874366	      4.68833558	     19.44144103	     89.95437384	      0.00000000	      0.00000000
      0.09000000	     -0.38823152	      8.31068090	      1.02869222	     -0.99852794	      0.96232092	     -1.44493742	     19.61102778	    -20.54750629	     -8.96394064	    -60.91778294	     -1.06321589	      1.19906171	    -17.56891599	     12.52697850	      2.22739696	     -8.54959783	     13.34142744	    -10.59216408	     -0.18486814	      2.67106800	      5.43955109	     -2.39315249	     -2.47405966	     -9.71209297	     -0.30532003	      5.00440779	     -9.67228947	    -10.34772054	     22.89531543	     89.95437384	      0.00000000	      0.00000000	      3.43508311	     14.30457902	      4.34895621	     20.28817104	     89.95437384	      0.00000000	      0.00000000
